<?xml version="1.0" encoding="utf-8"?>
<svg version="1.1" xmlns:xlink="http://www.w3.org/1999/xlink" width="170px" height="170px" xmlns="http://www.w3.org/2000/svg">
  <g transform="matrix(1 0 0 1 -103 -22 )">
    <path d="M 188 22  C 235.6 22  273 59.4  273 107  C 273 154.6  235.6 192  188 192  C 140.4 192  103 154.6  103 107  C 103 59.4  140.4 22  188 22  Z " fill-rule="nonzero" fill="#facd91" stroke="none" />
    <path d="M 188 22.5  C 235.32 22.5  272.5 59.68  272.5 107  C 272.5 154.32  235.32 191.5  188 191.5  C 140.68 191.5  103.5 154.32  103.5 107  C 103.5 59.68  140.68 22.5  188 22.5  Z " stroke-width="1" stroke="#797979" fill="none" />
  </g>
</svg>