<?xml version="1.0" encoding="utf-8"?>
<svg version="1.1" xmlns:xlink="http://www.w3.org/1999/xlink" width="101px" height="97px" xmlns="http://www.w3.org/2000/svg">
  <g transform="matrix(1 0 0 1 -132 -79 )">
    <path d="M 132 79  L 233 79  L 233 176  L 132 176  L 132 79  " fill-rule="nonzero" fill="#cccccc" stroke="none" />
    <path d="M 139 86  L 226 86  L 226 169  L 139 169  L 139 86  " fill-rule="nonzero" fill="#ffffff" stroke="none" />
    <path d="M 191.795 108.1  C 187.721 108.1  184.52 104.899  184.52 100.825  C 184.52 96.751  187.721 93.55  191.795 93.55  C 195.869 93.55  199.07 96.751  199.07 100.825  C 199.07 104.899  195.869 108.1  191.795 108.1  " fill-rule="nonzero" fill="#cccccc" stroke="none" />
    <path d="M 142 167  L 142 124.1  L 162.5 104.6  L 191.2 122.053465346535  L 207.6 116.3  L 224 122.053465346535  L 224 167  L 142 167  " fill-rule="nonzero" fill="#169bd5" stroke="none" />
  </g>
</svg>