<?xml version="1.0" encoding="utf-8"?>
<svg version="1.1" xmlns:xlink="http://www.w3.org/1999/xlink" width="12px" height="12px" viewBox="541 372.5  12 12" xmlns="http://www.w3.org/2000/svg">
  <path d="M 547 372.5  C 550.36 372.5  553 375.14  553 378.5  C 553 381.86  550.36 384.5  547 384.5  C 543.64 384.5  541 381.86  541 378.5  C 541 375.14  543.64 372.5  547 372.5  Z " fill-rule="nonzero" fill="#ffffff" stroke="none" />
  <path d="M 547 373  C 550.08 373  552.5 375.42  552.5 378.5  C 552.5 381.58  550.08 384  547 384  C 543.92 384  541.5 381.58  541.5 378.5  C 541.5 375.42  543.92 373  547 373  Z " stroke-width="1" stroke="#797979" fill="none" />
  <path d="M 547 381.5  C 545.32 381.5  544 380.18  544 378.5  C 544 376.82  545.32 375.5  547 375.5  C 548.68 375.5  550 376.82  550 378.5  C 550 380.18  548.68 381.5  547 381.5  " fill-rule="nonzero" fill="#797979" stroke="none" />
</svg>