<?xml version="1.0" encoding="utf-8"?>
<svg version="1.1" xmlns:xlink="http://www.w3.org/1999/xlink" width="81px" height="64px" xmlns="http://www.w3.org/2000/svg">
  <g transform="matrix(1 0 0 1 -674 -307 )">
    <path d="M 674 307  L 755 307  L 755 371  L 674 371  L 674 307  " fill-rule="nonzero" fill="#cccccc" stroke="none" />
    <path d="M 678 311  L 751 311  L 751 367  L 678 367  L 678 311  " fill-rule="nonzero" fill="#ffffff" stroke="none" />
    <path d="M 720.92 326.2  C 718.232 326.2  716.12 324.088  716.12 321.4  C 716.12 318.712  718.232 316.6  720.92 316.6  C 723.608 316.6  725.72 318.712  725.72 321.4  C 725.72 324.088  723.608 326.2  720.92 326.2  " fill-rule="nonzero" fill="#cccccc" stroke="none" />
    <path d="M 680 366  L 680 336.85  L 697.5 323.6  L 722 340.874074074074  L 736 331.55  L 750 340.874074074074  L 750 366  L 680 366  " fill-rule="nonzero" fill="#169bd5" stroke="none" />
  </g>
</svg>